<svg id="Capa_3" data-name="Capa 3" xmlns="http://www.w3.org/2000/svg" viewBox="0 0 14.13 14.11"><defs><style>.cls-1{fill:#1d1d1b;}.cls-2{fill:#fff;}</style></defs><title>instagram_icon</title><path class="cls-1" d="M19,12c0,.93,0,1.87,0,2.8A4.21,4.21,0,0,1,14.71,19H9.39a4.22,4.22,0,0,1-4.46-4.29q-.06-2.75,0-5.49A4.24,4.24,0,0,1,9.37,4.93h5.19A4.24,4.24,0,0,1,19,9.41Z" transform="translate(-4.9 -4.93)"/><path class="cls-2" d="M17.67,12c0,.94,0,1.87,0,2.81a2.86,2.86,0,0,1-2.84,2.86c-1.89,0-3.79,0-5.68,0a2.86,2.86,0,0,1-2.86-2.9c0-1.85,0-3.71,0-5.56A2.85,2.85,0,0,1,9.19,6.3h5.56a2.86,2.86,0,0,1,2.92,3Z" transform="translate(-4.9 -4.93)"/><path class="cls-1" d="M12,15.45A3.47,3.47,0,1,1,15.52,12,3.45,3.45,0,0,1,12,15.45Z" transform="translate(-4.9 -4.93)"/><path class="cls-1" d="M16.55,8.29a.86.86,0,0,1-.84.84.82.82,0,0,1-.83-.83.79.79,0,0,1,.82-.83A.82.82,0,0,1,16.55,8.29Z" transform="translate(-4.9 -4.93)"/><path class="cls-2" d="M12,14.19a2.2,2.2,0,1,1,.07-4.4,2.2,2.2,0,0,1-.07,4.4Z" transform="translate(-4.9 -4.93)"/></svg>