<svg id="_02-logo" data-name="02-logo" xmlns="http://www.w3.org/2000/svg" viewBox="0 0 380.45 56.72"><defs><style>.cls-1{fill:#fff;}</style></defs><title>02-LOGO_WEB_white-400x90</title><g id="DETALLE"><path class="cls-1" d="M9.44,62.29v-3H23.82v3Zm0,5.28v-3H23.82v3Zm0,5.3v-3H23.82v3Z" transform="translate(-9.44 -16.15)"/><path class="cls-1" d="M28.3,72.87v-3h12c.37,0,.67-.52.67-1.16s-.3-1.18-.67-1.18H30.68c-1.3,0-2.38-1.84-2.38-4.12s1.08-4.11,2.38-4.11H42.24v2.95H30.68c-.37,0-.67.53-.67,1.16s.3,1.16.67,1.16H40.3c1.32,0,2.38,1.88,2.38,4.14s-1.06,4.12-2.38,4.12Z" transform="translate(-9.44 -16.15)"/><path class="cls-1" d="M47.16,62.29v-3h4.62v3Zm6.33,10.58V59.32h8v3H55.2V72.87Z" transform="translate(-9.44 -16.15)"/><path class="cls-1" d="M69.16,72.87c-1.73,0-3.14-2.44-3.14-5.43V59.32h1.71v8.12c0,1.37.65,2.47,1.43,2.47h8.1c.79,0,1.43-1.1,1.43-2.47V59.32H80.4v8.12c0,3-1.41,5.43-3.14,5.43Z" transform="translate(-9.44 -16.15)"/><path class="cls-1" d="M84.88,72.87v-3H95.35c1.22,0,2.2-1.72,2.2-3.81s-1-3.81-2.2-3.81H84.88v-3H95.35c2.16,0,3.91,3,3.91,6.78s-1.75,6.77-3.91,6.77Z" transform="translate(-9.44 -16.15)"/><path class="cls-1" d="M105.45,59.34V72.87h-1.71V59.34Z" transform="translate(-9.44 -16.15)"/><path class="cls-1" d="M113.06,72.87c-1.73,0-3.14-2.44-3.14-5.43V64.77c0-3,1.41-5.45,3.14-5.45h8.1c1.74,0,3.14,2.45,3.14,5.45v2.67c0,3-1.4,5.43-3.14,5.43Zm0-10.58c-.78,0-1.43,1.11-1.43,2.48v2.67c0,1.37.65,2.47,1.43,2.47h8.1c.8,0,1.43-1.1,1.43-2.47V64.77c0-1.37-.63-2.48-1.43-2.48Z" transform="translate(-9.44 -16.15)"/><path class="cls-1" d="M134.37,72.87v-3h10.47c1.22,0,2.2-1.72,2.2-3.81s-1-3.81-2.2-3.81H134.37v-3h10.47c2.16,0,3.91,3,3.91,6.78s-1.75,6.77-3.91,6.77Z" transform="translate(-9.44 -16.15)"/><path class="cls-1" d="M152.12,62.29v-3H166.5v3Zm0,5.28v-3H166.5v3Zm0,5.3v-3H166.5v3Z" transform="translate(-9.44 -16.15)"/><path class="cls-1" d="M178.94,72.87h-2.37l8.12-13.55,8.14,13.55h-2.37l-5.77-9.61Z" transform="translate(-9.44 -16.15)"/><path class="cls-1" d="M208.6,72.87l-2-3.27H199v3.27h-1.71V66.62h11.61c.68,0,1.25-1,1.25-2.16s-.57-2.17-1.25-2.17H197.31v-3h11.61c1.63,0,3,2.3,3,5.14s-1.23,5-2.79,5.12l2,3.29Z" transform="translate(-9.44 -16.15)"/><path class="cls-1" d="M227.6,59.32c1.73,0,3.14,2.45,3.14,5.45v2.67c0,3-1.41,5.43-3.14,5.43h-.42l-4.07-6.77h2.47l2.26,3.77A2.47,2.47,0,0,0,229,67.44V64.77c0-1.37-.64-2.48-1.43-2.48h-8.1c-.79,0-1.43,1.11-1.43,2.48v2.67c0,1.37.64,2.47,1.43,2.47h3.43l1.77,3h-5.2c-1.74,0-3.14-2.44-3.14-5.43V64.77c0-3,1.4-5.45,3.14-5.45Z" transform="translate(-9.44 -16.15)"/><path class="cls-1" d="M238.36,72.87c-1.73,0-3.14-2.44-3.14-5.43V59.32h1.71v8.12c0,1.37.65,2.47,1.43,2.47h8.1c.79,0,1.43-1.1,1.43-2.47V59.32h1.71v8.12c0,3-1.41,5.43-3.14,5.43Z" transform="translate(-9.44 -16.15)"/><path class="cls-1" d="M255.79,59.34V72.87h-1.71V59.34Z" transform="translate(-9.44 -16.15)"/><path class="cls-1" d="M260.26,62.29v-3h4.63v3Zm6.34,10.58V59.32h8v3h-6.33V72.87Z" transform="translate(-9.44 -16.15)"/><path class="cls-1" d="M279.12,62.29v-3H293.5v3Zm0,5.28v-3H293.5v3Zm0,5.3v-3H293.5v3Z" transform="translate(-9.44 -16.15)"/><path class="cls-1" d="M301.89,72.87c-2.15,0-3.91-3-3.91-6.77s1.76-6.78,3.91-6.78h10.48v3H301.89c-1.2,0-2.2,1.73-2.2,3.83s1,3.81,2.2,3.81h10.48v3Z" transform="translate(-9.44 -16.15)"/><path class="cls-1" d="M316.85,62.29v-3h4.63v3Zm6.34,10.58V59.32h8v3H324.9V72.87Z" transform="translate(-9.44 -16.15)"/><path class="cls-1" d="M338.86,72.87c-1.74,0-3.14-2.44-3.14-5.43V59.32h1.7v8.12c0,1.37.65,2.47,1.44,2.47H347c.79,0,1.43-1.1,1.43-2.47V59.32h1.71v8.12c0,3-1.41,5.43-3.14,5.43Z" transform="translate(-9.44 -16.15)"/><path class="cls-1" d="M365.87,72.87l-2-3.27h-7.62v3.27h-1.71V66.62h11.61c.68,0,1.25-1,1.25-2.16s-.57-2.17-1.25-2.17H354.58v-3h11.61c1.63,0,3,2.3,3,5.14s-1.23,5-2.79,5.12l2,3.29Z" transform="translate(-9.44 -16.15)"/><path class="cls-1" d="M376,72.87h-2.37l8.12-13.55,8.13,13.55h-2.36l-5.77-9.61Z" transform="translate(-9.44 -16.15)"/></g><g id="TITULO"><path class="cls-1" d="M9.67,45.23V31.83h43.1a4.65,4.65,0,1,0,0-9.29H9.67V16.15h43.1a11,11,0,0,1,0,22.07H16v7Z" transform="translate(-9.44 -16.15)"/><path class="cls-1" d="M92,45.23A11.66,11.66,0,0,1,80.37,33.58V27.85A11.71,11.71,0,0,1,92,16.15h30.08a11.71,11.71,0,0,1,11.66,11.7v5.73a11.66,11.66,0,0,1-11.66,11.65Zm0-22.69a5.31,5.31,0,0,0-5.31,5.31v5.73A5.32,5.32,0,0,0,92,38.89h30.08a5.3,5.3,0,0,0,5.31-5.31V27.85a5.29,5.29,0,0,0-5.31-5.31Z" transform="translate(-9.44 -16.15)"/><path class="cls-1" d="M156.72,16.19v29h-6.35v-29Z" transform="translate(-9.44 -16.15)"/><path class="cls-1" d="M173.32,22.54V16.15h53.39v6.39Zm0,11.33V27.52h53.39v6.35Zm0,11.36V38.89h53.39v6.34Z" transform="translate(-9.44 -16.15)"/><path class="cls-1" d="M243.31,45.23V38.89h44.56a2.51,2.51,0,0,0,0-5H252.15a8.84,8.84,0,0,1,0-17.68h42.94v6.35H252.15a2.49,2.49,0,0,0,0,5h35.72a8.86,8.86,0,0,1,0,17.71Z" transform="translate(-9.44 -16.15)"/><path class="cls-1" d="M319.66,16.19v29h-6.35v-29Z" transform="translate(-9.44 -16.15)"/><path class="cls-1" d="M336.26,45.23V38.89h44.56a2.51,2.51,0,0,0,0-5H345.1a8.84,8.84,0,0,1,0-17.68H388v6.35H345.1a2.49,2.49,0,0,0,0,5h35.72a8.86,8.86,0,0,1,0,17.71Z" transform="translate(-9.44 -16.15)"/></g></svg>