<svg id="youtube_icon" data-name="youtube icon" xmlns="http://www.w3.org/2000/svg" viewBox="0 0 20.29 14.14"><defs><style>.cls-1{fill:#fff;}</style></defs><title>youtube_icon</title><rect width="20.29" height="14.14"/><path class="cls-1" d="M10.14,13.65H4.9A4,4,0,0,1,.73,9.75h0a53.83,53.83,0,0,1,0-5.39A4.06,4.06,0,0,1,4.93.48H15.39a4.1,4.1,0,0,1,4.19,4v5a4.09,4.09,0,0,1-4.06,4.12h-.14C13.64,13.69,11.89,13.65,10.14,13.65Z" transform="translate(0.03 -0.01)"/><path d="M7.81,7.12v-2c0-.67.4-.82.93-.56,1.49.77,3,1.59,4.43,2.4.43.23.36.46,0,.65-1.45.72-2.89,1.46-4.36,2.15-.59.27-.93.07-.93-.64S7.81,7.79,7.81,7.12Z" transform="translate(0.03 -0.01)"/></svg>