<svg xmlns="http://www.w3.org/2000/svg" viewBox="0 0 22.97 22.97"><defs><style>.cls-1{fill:#fff;stroke:#1d1d1b;stroke-miterlimit:10;stroke-width:2px;}.cls-2{fill:#1d1d1b;}</style></defs><title>icon_close</title><g id="Capa_1" data-name="Capa 1"><circle class="cls-1" cx="11.48" cy="11.48" r="10.48"/></g><g id="Capa_2" data-name="Capa 2"><line class="cls-2" x1="6.06" y1="6.06" x2="16.91" y2="16.91"/><path class="cls-2" d="M5.69,7.5,15.19,17l1.35,1.35a1.25,1.25,0,0,0,1.77-1.76l-9.5-9.5L7.46,5.73A1.25,1.25,0,0,0,5.69,7.5Z" transform="translate(-0.52 -0.55)"/><line class="cls-2" x1="16.91" y1="6.06" x2="6.06" y2="16.91"/><path class="cls-2" d="M16.54,5.73,7,15.22,5.69,16.58a1.25,1.25,0,0,0,1.77,1.76L17,8.85,18.31,7.5a1.25,1.25,0,0,0-1.77-1.77Z" transform="translate(-0.52 -0.55)"/></g></svg>