<svg id="Capa_2" data-name="Capa 2" xmlns="http://www.w3.org/2000/svg" viewBox="0 0 23.83 23.83"><defs><style>.cls-1{fill:#fff;}</style></defs><title>facebook_icon</title><rect width="23.83" height="23.83"/><path class="cls-1" d="M13.37,23c.44,0,.44,0,.44-.59,0-1.39,0-2.78,0-4.18V13.93c0-.47.15-.57.6-.57h2.15c.5,0,.55-.09.59-.47.14-1.05.29-2.11.47-3.16,0-.35,0-.44-.37-.44H14.35c-.39,0-.54-.08-.53-.49V6.57a1.94,1.94,0,0,1,1.87-2H16c.6,0,1.41.27,1.73-.13s.17-1.16.17-1.77c0-1.31-.07-1.65-1.72-1.79a10,10,0,0,0-2.56,0,4.78,4.78,0,0,0-4.21,5v3c0,.37-.09.49-.46.48H6.39c-.39,0-.52.12-.51.51V12.9c0,.39.13.5.51.5H9c.36,0,.46.11.46.48V22.7c0,.34,0,.34.32.34"/></svg>