<?xml version="1.0" encoding="UTF-8"?>
<svg id="Logos" xmlns="http://www.w3.org/2000/svg" viewBox="0 0 1080 1080">
  <defs>
    <style>
      .cls-1 {
        opacity: .57;
      }

      .cls-1, .cls-2, .cls-3 {
        stroke-width: 0px;
      }

      .cls-1, .cls-3 {
        fill: #fff;
      }

      .cls-2 {
        fill: #f60;
      }
    </style>
  </defs>
  <path class="cls-2" d="M251.8,498.66v48.58l-41.41,25.38h0s-41.85,25.65-41.85,25.65v16.26h-46.52v-42.3l24.48-15.01c9.08-5.56,19.5-8.5,30.13-8.5h17.2v-14.7h-48.99l-22.83-13.99v-54.54l54.13,33.17h75.64Z"/>
  <g>
    <path class="cls-3" d="M770.06,532.01v-8.36h-3.24v-1.14h7.75v1.14h-3.24v8.36h-1.27ZM775.31,532.01v-9.5h1.49l3.55,6.43,3.55-6.43h1.44v9.5h-1.27v-7.31l-3.24,5.78h-1.01l-3.24-5.73v7.27h-1.27Z"/>
    <g>
      <path class="cls-3" d="M364.09,507.75c-6.73-6.07-15.05-9.1-24.93-9.1h-41.15v104.01h14.37v-36.1h26.77c9.88,0,18.2-3.06,24.93-9.18,6.73-6.12,10.1-14.37,10.1-24.78s-3.37-18.79-10.1-24.86ZM354.15,548.21c-3.98,3.88-9.23,5.81-15.76,5.81h-26.01v-33.18c0-2.94-2.38-5.33-5.33-5.33h-2.59v-4.47h33.92c6.53,0,11.78,1.96,15.76,5.89,3.98,3.93,5.96,9.15,5.96,15.68s-1.99,11.73-5.96,15.6Z"/>
      <path class="cls-3" d="M458.51,561.86c-.13-10.86-4.03-20.11-11.69-27.72-7.81-7.75-17.25-11.62-28.37-11.62s-20.55,3.88-28.3,11.62c-7.62,7.61-11.49,16.85-11.61,27.72,0,.34,0,.69,0,1.04,0,.19,0,.38,0,.57.13,10.77,4,19.96,11.61,27.57,7.75,7.75,17.18,11.62,28.3,11.62s20.57-3.88,28.37-11.62c7.66-7.61,11.56-16.8,11.69-27.57,0-.19,0-.38,0-.57,0-.35,0-.7,0-1.04ZM444.3,563.05c0,7.54-2.5,13.89-7.5,19.04-5,5.16-11.12,7.73-18.35,7.73s-13.34-2.57-18.28-7.73c-4.95-5.15-7.42-11.49-7.42-19.04,0-.08,0-.15,0-.23,0-.07,0-.15,0-.24,0-7.54,2.47-13.91,7.42-19.11,4.94-5.2,11.04-7.81,18.28-7.81s13.35,2.61,18.35,7.81c5,5.21,7.5,11.57,7.5,19.11,0,.09,0,.17,0,.24,0,.08,0,.15,0,.23Z"/>
      <path class="cls-3" d="M651.49,577.74c0,7.45-2.98,13.46-8.95,18.05-5.96,4.59-13.74,6.88-23.33,6.88-7.64,0-14.58-1.81-20.8-5.43-4.28-2.49-7.66-5.74-10.16-9.74-1.65-2.65-2.77-5.61-3.49-8.65l-.26-1.11h12.83c3.67,9.18,11.02,13.77,22.03,13.77,5.82,0,10.38-1.25,13.69-3.75,3.31-2.5,4.97-5.84,4.97-10.02s-1.86-6.63-5.58-7.96c-3.72-1.32-8.97-2.27-15.76-2.83-6.78-.55-11.95-1.55-15.52-2.98-8.46-3.37-12.7-9.38-12.7-18.05,0-6.42,2.83-11.93,8.49-16.52,5.67-4.58,12.67-6.88,21.04-6.88s14.5,1.89,19.66,5.67c5.15,3.77,8.59,8.67,10.32,14.68l.86,3.21h-12.64c-1.12-3.88-3.19-7.04-6.19-9.48-3.01-2.45-6.96-3.67-11.85-3.67s-8.93,1.28-12.08,3.83c-3.17,2.55-4.75,5.5-4.75,8.87s1.42,6.07,4.29,7.81c2.85,1.73,6.12,2.78,9.79,3.14,3.66.36,8,.86,13,1.53,4.99.66,8.87,1.61,11.62,2.83,7.64,3.26,11.47,8.87,11.47,16.83Z"/>
      <path class="cls-3" d="M484.86,532.32v70.35h-13.46v-80.16h6.47v4.48h1.67c2.94,0,5.33,2.38,5.33,5.33Z"/>
      <path class="cls-3" d="M677.83,532.32v70.35h-13.46v-80.16h6.47v4.48h1.67c2.94,0,5.33,2.38,5.33,5.33Z"/>
      <rect class="cls-3" x="471.4" y="503.42" width="13.46" height="13.46"/>
      <rect class="cls-3" x="664.37" y="503.42" width="13.46" height="13.46"/>
      <path class="cls-3" d="M753.73,577.74c0,7.45-2.98,13.46-8.95,18.05-5.96,4.59-13.74,6.88-23.33,6.88-7.64,0-14.58-1.81-20.8-5.43-4.28-2.49-7.66-5.74-10.16-9.74-1.65-2.65-2.77-5.61-3.49-8.65l-.26-1.11h12.83c3.67,9.18,11.02,13.77,22.03,13.77,5.82,0,10.38-1.25,13.69-3.75,3.31-2.5,4.97-5.84,4.97-10.02s-1.86-6.63-5.58-7.96c-3.72-1.32-8.97-2.27-15.76-2.83-6.78-.55-11.95-1.55-15.52-2.98-8.46-3.37-12.7-9.38-12.7-18.05,0-6.42,2.83-11.93,8.49-16.52,5.67-4.58,12.67-6.88,21.04-6.88s14.5,1.89,19.66,5.67c5.15,3.77,8.59,8.67,10.32,14.68l.86,3.21h-12.64c-1.12-3.88-3.19-7.04-6.19-9.48-3.01-2.45-6.96-3.67-11.85-3.67s-8.93,1.28-12.08,3.83c-3.17,2.55-4.75,5.5-4.75,8.87s1.42,6.07,4.29,7.81c2.85,1.73,6.12,2.78,9.79,3.14,3.66.36,8,.86,13,1.53,4.99.66,8.87,1.61,11.62,2.83,7.64,3.26,11.47,8.87,11.47,16.83Z"/>
      <path class="cls-1" d="M506.71,571.06h-3.6v-.02h3.23c.12,0,.25,0,.37.02Z"/>
      <path class="cls-3" d="M575.6,561.67c-.32-11.73-4.03-21.18-11.17-28.37-7.13-7.19-16.27-10.78-27.38-10.78s-20.58,3.82-28.08,11.47c-7.49,7.64-11.24,17.13-11.24,28.45v.77c0,3.65.43,7.12,1.3,10.43,0,0,0,.03,0,.03.03.09.04.17.07.25.06.23.12.45.19.67.03.09.05.17.08.26.07.22.13.43.2.66.09.26.17.53.26.79.13.39.26.78.42,1.17.09.23.18.46.28.69.09.24.18.47.28.7.14.3.26.6.4.89.17.37.35.75.54,1.12.38.74.78,1.47,1.2,2.18.21.36.43.72.65,1.07.68,1.06,1.41,2.1,2.2,3.1.53.68,1.08,1.34,1.66,1.99.3.32.59.65.89.96.3.32.6.64.93.95.84.85,1.71,1.65,2.61,2.41.03.03.08.07.12.11.22.18.43.35.64.53.24.19.47.37.71.55.43.34,1.16.87,1.61,1.18.17.12.35.24.53.37.32.2.65.42.96.62l.88.54c.43.25.87.51,1.31.74.26.14.49.26.75.39.45.23.89.44,1.35.66.26.12.54.24.79.36.26.1.53.21.78.32.26.1.53.2.8.31.26.1.54.2.8.3.81.28,1.64.54,2.47.77.28.08.55.15.84.21.16.04.33.09.5.13.2.04.41.09.61.14.31.07.62.13.94.19.32.07.64.12.95.17.32.06.64.1.96.14.32.05.65.09.97.13.32.03.65.07.99.1.32.03.66.07.98.09.26,0,.5.03.75.03.42.03.84.04,1.26.05.36.01.7,0,1.09,0,.61,0,1.22-.01,1.83-.04.34-.02.67-.03,1-.05.33,0,.66-.04.99-.07.13,0,.27-.03.4-.04.44-.03.89-.08,1.33-.14,8.55-1.06,15.75-4.54,21.61-10.45,1.54-1.54,2.91-3.2,4.14-4.97,2.97-4.28,5-9.17,6.08-14.7h-12.53c-1.62,5.45-4.45,9.88-8.49,13.32-3.17,2.7-6.91,4.44-11.21,5.19,0,0-.02,0-.03,0-1.7.31-3.48.46-5.36.46-6.32,0-11.81-1.88-16.45-5.66-.86-.7-1.67-1.44-2.43-2.22,0-.02-.03-.03-.04-.05-.11-.12-.22-.24-.33-.37h0c-1.74-1.64-3.28-4.03-4.2-5.62-.49-.84-.82-1.75-1.15-2.67-.69-1.96-2.49-3.39-4.65-3.54h-3.6v-4.47h6.54v-.02h64.71c.09-1.02.15-2.39.15-4.13,0-.04,0-.08,0-.11,0-.21,0-.43,0-.66ZM511.33,555.4c0-.09.18-.77.18-.77,1.42-6.21,4.46-11.21,9.1-14.99,4.64-3.77,10.12-5.66,16.45-5.66s12.16,1.88,16.59,5.66c4.44,3.77,7.42,8.78,8.96,14.99,0,0,.18.67.18.77h-51.45Z"/>
    </g>
    <g>
      <g>
        <path class="cls-3" d="M766.82,573.19l9.69-23.56h2.62l9.93,23.56h-2.69l-2.09-5.01h-12.72l-2.05,5.01h-2.69ZM772.37,565.92h11.07l-5.59-13.43h-.07l-5.42,13.43Z"/>
        <path class="cls-3" d="M791.53,573.19v-16.66h2.36v2.83c1.28-2.09,3.42-3.1,6.43-3.03v2.46c-.38-.13-.92-.2-1.62-.2-1.35.04-2.48.57-3.42,1.58-.93,1.01-1.4,2.33-1.4,3.97v9.05h-2.36Z"/>
        <path class="cls-3" d="M816.4,581.6v-11.64c-1.55,2.29-3.81,3.43-6.8,3.43-2.29,0-4.21-.82-5.77-2.47-1.56-1.65-2.34-3.66-2.34-6.04s.78-4.43,2.34-6.07c1.56-1.65,3.48-2.47,5.77-2.47,3.01,0,5.27,1.16,6.8,3.47v-3.26h2.36v25.07h-2.36ZM805.66,569.47c1.19,1.25,2.67,1.87,4.44,1.87s3.26-.62,4.48-1.87c1.21-1.25,1.82-2.78,1.82-4.59s-.61-3.35-1.82-4.61c-1.21-1.26-2.7-1.88-4.48-1.88s-3.25.63-4.44,1.88c-1.19,1.26-1.78,2.79-1.78,4.61s.59,3.35,1.78,4.59Z"/>
        <path class="cls-3" d="M830.02,573.39c-2.13,0-3.86-.7-5.18-2.1-1.32-1.4-1.99-3.47-1.99-6.21v-8.55h2.36v8.38c0,2.15.48,3.76,1.45,4.83.96,1.07,2.18,1.6,3.63,1.6,1.64,0,2.95-.57,3.94-1.72.99-1.14,1.48-2.76,1.48-4.85v-8.24h2.36v16.66h-2.36v-2.79h-.03c-1.3,2-3.19,2.99-5.65,2.99Z"/>
        <path class="cls-3" d="M843.53,553.03c-.38,0-.72-.14-1.01-.42-.29-.28-.44-.62-.44-1.03,0-.38.15-.71.44-.99.29-.28.63-.42,1.01-.42.4,0,.75.14,1.03.42.28.28.42.61.42.99,0,.4-.14.75-.42,1.03-.28.28-.62.42-1.03.42ZM842.38,573.19v-16.66h2.32v16.66h-2.32Z"/>
        <path class="cls-3" d="M856.18,573.26c-1.46,0-2.64-.41-3.55-1.24-.91-.83-1.36-2-1.36-3.5v-9.89h-4.07v-2.09h4.07v-4.85h2.32v4.85h4.81v2.09h-4.81v9.46c0,1.03.28,1.8.84,2.29.56.49,1.31.74,2.25.74.52,0,1.16-.1,1.92-.3l.3,2.02c-.9.29-1.81.44-2.73.44Z"/>
        <path class="cls-3" d="M868.91,556.09c2.4,0,4.4.79,6.01,2.36,1.6,1.57,2.44,3.6,2.51,6.09v.88h-14.87c.11,1.79.78,3.26,2,4.41,1.22,1.14,2.7,1.72,4.43,1.72,2.4,0,4.24-.84,5.52-2.52l1.51,1.21c-1.59,2.22-3.96,3.33-7.1,3.33-2.38,0-4.41-.85-6.09-2.54-1.68-1.69-2.52-3.74-2.52-6.14s.82-4.55,2.46-6.24c1.64-1.69,3.69-2.54,6.16-2.54ZM868.91,558.11c-1.59,0-2.96.49-4.11,1.48-1.14.99-1.86,2.28-2.15,3.87h12.55c-.29-1.59-1-2.88-2.12-3.87-1.12-.99-2.51-1.48-4.17-1.48Z"/>
        <path class="cls-3" d="M888.23,573.59c-2.38,0-4.41-.85-6.11-2.56-1.69-1.7-2.54-3.76-2.54-6.16s.85-4.49,2.54-6.21c1.69-1.72,3.73-2.57,6.11-2.57,1.44,0,2.78.33,4.04.99,1.26.66,2.28,1.56,3.06,2.71l-1.95,1.41c-.54-.87-1.26-1.56-2.17-2.07-.91-.5-1.9-.77-2.98-.79-1.77,0-3.27.63-4.49,1.9-1.22,1.27-1.83,2.81-1.83,4.63s.61,3.35,1.82,4.59c1.21,1.25,2.71,1.88,4.51,1.9,1.08,0,2.08-.26,3.01-.77.93-.52,1.68-1.21,2.24-2.09l1.88,1.41c-.81,1.12-1.84,2.01-3.1,2.68-1.26.66-2.6.99-4.04.99Z"/>
        <path class="cls-3" d="M905.98,573.26c-1.46,0-2.64-.41-3.55-1.24-.91-.83-1.36-2-1.36-3.5v-9.89h-4.07v-2.09h4.07v-4.85h2.32v4.85h4.81v2.09h-4.81v9.46c0,1.03.28,1.8.84,2.29.56.49,1.31.74,2.25.74.52,0,1.16-.1,1.92-.3l.3,2.02c-.9.29-1.81.44-2.73.44Z"/>
        <path class="cls-3" d="M918.35,573.39c-2.13,0-3.86-.7-5.18-2.1-1.32-1.4-1.99-3.47-1.99-6.21v-8.55h2.36v8.38c0,2.15.48,3.76,1.45,4.83.96,1.07,2.18,1.6,3.63,1.6,1.64,0,2.95-.57,3.94-1.72.99-1.14,1.48-2.76,1.48-4.85v-8.24h2.36v16.66h-2.36v-2.79h-.03c-1.3,2-3.19,2.99-5.65,2.99Z"/>
        <path class="cls-3" d="M930.75,573.19v-16.66h2.36v2.83c1.28-2.09,3.42-3.1,6.43-3.03v2.46c-.38-.13-.92-.2-1.62-.2-1.35.04-2.48.57-3.42,1.58-.93,1.01-1.4,2.33-1.4,3.97v9.05h-2.36Z"/>
        <path class="cls-3" d="M948.82,573.39c-2.29,0-4.21-.82-5.77-2.47-1.56-1.65-2.34-3.66-2.34-6.04s.78-4.43,2.34-6.07c1.56-1.65,3.48-2.47,5.77-2.47,3.01,0,5.27,1.16,6.8,3.47v-3.26h2.36v16.66h-2.36v-3.23c-1.55,2.29-3.81,3.43-6.8,3.43ZM944.85,569.47c1.21,1.25,2.7,1.87,4.48,1.87s3.26-.62,4.48-1.87c1.21-1.25,1.82-2.78,1.82-4.59s-.61-3.35-1.82-4.61c-1.21-1.26-2.7-1.88-4.48-1.88s-3.26.63-4.48,1.88c-1.21,1.26-1.82,2.79-1.82,4.61s.61,3.35,1.82,4.59Z"/>
      </g>
      <g>
        <path class="cls-3" d="M776.21,585.2c2.4,0,4.4.79,6.01,2.36,1.6,1.57,2.44,3.6,2.51,6.09v.88h-14.87c.11,1.79.78,3.26,2,4.41,1.22,1.14,2.7,1.72,4.43,1.72,2.4,0,4.24-.84,5.52-2.52l1.51,1.21c-1.59,2.22-3.96,3.33-7.1,3.33-2.38,0-4.41-.85-6.09-2.54-1.68-1.69-2.52-3.74-2.52-6.14s.82-4.55,2.46-6.24c1.64-1.69,3.69-2.54,6.16-2.54ZM776.21,587.22c-1.59,0-2.96.49-4.11,1.48-1.14.99-1.86,2.28-2.15,3.87h12.55c-.29-1.59-1-2.88-2.12-3.87-1.12-.99-2.51-1.48-4.17-1.48Z"/>
        <path class="cls-3" d="M796.6,582.14c-.38,0-.72-.14-1.01-.42-.29-.28-.44-.62-.44-1.03,0-.38.15-.71.44-.99.29-.28.63-.42,1.01-.42.4,0,.75.14,1.03.42.28.28.42.61.42.99,0,.4-.14.75-.42,1.03-.28.28-.62.42-1.03.42ZM795.46,602.3v-16.66h2.32v16.66h-2.32Z"/>
        <path class="cls-3" d="M802.09,602.3v-16.66h2.36v2.86c1.28-2.04,3.17-3.06,5.69-3.06,2.13,0,3.86.7,5.18,2.1,1.32,1.4,1.99,3.47,1.99,6.21v8.55h-2.36v-8.38c0-2.15-.48-3.76-1.45-4.83-.96-1.07-2.18-1.6-3.63-1.6-1.64,0-2.95.57-3.94,1.72-.99,1.14-1.48,2.76-1.48,4.85v8.24h-2.36Z"/>
        <path class="cls-3" d="M828.9,610.71c-3.63.02-6.38-1.38-8.24-4.21l1.78-1.51c1.46,2.29,3.62,3.43,6.49,3.43,1.73,0,3.22-.58,4.48-1.73,1.26-1.16,1.88-2.78,1.88-4.86v-2.76c-.63,1.05-1.53,1.89-2.71,2.51-1.18.62-2.51.93-3.99.93-2.33,0-4.29-.82-5.86-2.46-1.57-1.64-2.36-3.66-2.36-6.06s.79-4.45,2.36-6.09c1.57-1.64,3.52-2.46,5.86-2.46,1.46,0,2.77.31,3.94.93,1.17.62,2.09,1.46,2.76,2.54v-3.26h2.36v16.05c0,2.87-.84,5.09-2.52,6.65-1.68,1.56-3.76,2.35-6.23,2.37ZM824.56,598.58c1.19,1.25,2.67,1.87,4.44,1.87s3.26-.62,4.48-1.87c1.21-1.25,1.82-2.78,1.82-4.59s-.61-3.35-1.82-4.61c-1.21-1.26-2.7-1.88-4.48-1.88s-3.25.63-4.44,1.88c-1.19,1.26-1.78,2.79-1.78,4.61s.59,3.35,1.78,4.59Z"/>
        <path class="cls-3" d="M849.65,585.2c2.4,0,4.4.79,6.01,2.36,1.6,1.57,2.44,3.6,2.51,6.09v.88h-14.87c.11,1.79.78,3.26,2,4.41,1.22,1.14,2.7,1.72,4.43,1.72,2.4,0,4.24-.84,5.52-2.52l1.51,1.21c-1.59,2.22-3.96,3.33-7.1,3.33-2.38,0-4.41-.85-6.09-2.54-1.68-1.69-2.52-3.74-2.52-6.14s.82-4.55,2.46-6.24c1.64-1.69,3.69-2.54,6.16-2.54ZM849.65,587.22c-1.59,0-2.96.49-4.11,1.48-1.14.99-1.86,2.28-2.15,3.87h12.55c-.29-1.59-1-2.88-2.12-3.87-1.12-.99-2.51-1.48-4.17-1.48Z"/>
        <path class="cls-3" d="M861.28,602.3v-16.66h2.36v2.86c1.28-2.04,3.17-3.06,5.69-3.06,2.13,0,3.86.7,5.18,2.1,1.32,1.4,1.99,3.47,1.99,6.21v8.55h-2.36v-8.38c0-2.15-.48-3.76-1.45-4.83-.96-1.07-2.18-1.6-3.63-1.6-1.64,0-2.95.57-3.94,1.72-.99,1.14-1.48,2.76-1.48,4.85v8.24h-2.36Z"/>
        <path class="cls-3" d="M881.63,582.14c-.38,0-.72-.14-1.01-.42-.29-.28-.44-.62-.44-1.03,0-.38.15-.71.44-.99.29-.28.63-.42,1.01-.42.4,0,.75.14,1.03.42.28.28.42.61.42.99,0,.4-.14.75-.42,1.03-.28.28-.62.42-1.03.42ZM880.49,602.3v-16.66h2.32v16.66h-2.32Z"/>
        <path class="cls-3" d="M894.69,585.2c2.4,0,4.4.79,6.01,2.36,1.6,1.57,2.44,3.6,2.51,6.09v.88h-14.87c.11,1.79.78,3.26,2,4.41,1.22,1.14,2.7,1.72,4.43,1.72,2.4,0,4.24-.84,5.52-2.52l1.51,1.21c-1.59,2.22-3.96,3.33-7.1,3.33-2.38,0-4.41-.85-6.09-2.54-1.68-1.69-2.52-3.74-2.52-6.14s.82-4.55,2.46-6.24c1.64-1.69,3.69-2.54,6.16-2.54ZM894.69,587.22c-1.59,0-2.96.49-4.11,1.48-1.14.99-1.86,2.28-2.15,3.87h12.55c-.29-1.59-1-2.88-2.12-3.87-1.12-.99-2.51-1.48-4.17-1.48Z"/>
        <path class="cls-3" d="M906.32,602.3v-16.66h2.36v2.83c1.28-2.09,3.42-3.1,6.43-3.03v2.46c-.38-.13-.92-.2-1.62-.2-1.35.04-2.48.57-3.42,1.58-.93,1.01-1.4,2.33-1.4,3.97v9.05h-2.36Z"/>
        <path class="cls-3" d="M918.78,582.14c-.38,0-.72-.14-1.01-.42-.29-.28-.44-.62-.44-1.03,0-.38.15-.71.44-.99.29-.28.63-.42,1.01-.42.4,0,.75.14,1.03.42.28.28.42.61.42.99,0,.4-.14.75-.42,1.03-.28.28-.62.42-1.03.42ZM917.64,602.3v-16.66h2.32v16.66h-2.32Z"/>
        <path class="cls-3" d="M931.33,602.5c-2.29,0-4.21-.82-5.77-2.47-1.56-1.65-2.34-3.66-2.34-6.04s.78-4.43,2.34-6.07c1.56-1.65,3.48-2.47,5.77-2.47,3.01,0,5.27,1.16,6.8,3.47v-3.26h2.36v16.66h-2.36v-3.23c-1.55,2.29-3.81,3.43-6.8,3.43ZM927.36,598.58c1.21,1.25,2.7,1.87,4.48,1.87s3.26-.62,4.48-1.87c1.21-1.25,1.82-2.78,1.82-4.59s-.61-3.35-1.82-4.61c-1.21-1.26-2.7-1.88-4.48-1.88s-3.26.63-4.48,1.88c-1.21,1.26-1.82,2.79-1.82,4.61s.61,3.35,1.82,4.59Z"/>
      </g>
    </g>
  </g>
</svg>