<svg id="_02-logo" data-name="02-logo" xmlns="http://www.w3.org/2000/svg" viewBox="0 0 400 74.11"><defs><style>.cls-1{font-size:25px;font-family:CenturyGothic, Century Gothic;}.cls-1,.cls-2{fill:#fff;}.cls-3{fill:red;}</style></defs><title>02-LOGO_WEB_white-400x90</title><text id="DETALLE" class="cls-1" transform="translate(8.58 66.44) scale(1.17 1)">ESTUDIO DE ARQUITECTURA</text><g id="TITULO"><path class="cls-2" d="M11,50V31.13H55.3c2.54,0,2.66-3.19,2.66-5.79s-.12-6.81-2.66-6.81H13V13H55.3c6.08,0,7,6.09,7,12.34s-.95,11.32-7,11.32H16.37V50Z" transform="translate(0 -13)"/><path class="cls-2" d="M92.72,50C86.26,50,80,44.87,80,38.26V24.15c0-6.61,6.25-11,12.71-11h26.19c6.46,0,12.72,4.39,12.72,11V38.26c0,6.61-6.26,11.74-12.72,11.74Zm0-31.31c-2.92,0-7.34,2.43-7.34,5.46V38.26c0,3,4.42,6.48,7.34,6.48h26.19c3,0,7.35-3.46,7.35-6.48V24.15c0-3-4.39-5.46-7.35-5.46Z" transform="translate(0 -13)"/><path class="cls-2" d="M155.69,13.19V50h-5.38V13.19Z" transform="translate(0 -13)"/><path class="cls-3" d="M173.36,18.81V13.15H227v5.66Zm0,16.1V29.29H227v5.62Zm0,15.09V44.38H227V50Z" transform="translate(0 -13)"/><path class="cls-2" d="M244.67,50V44.12h45.76c1.38,0,2.5-2.47,2.5-4.19s-1.12-5.3-2.5-5.3H250.54c-4.84,0-6.87-3.91-6.87-10.07s2-11.13,6.87-11.13h44.13V19.3H250.54c-1.38,0-2.5,3.53-2.5,5.26s1.12,5.25,2.5,5.25h39.89c4.92,0,6.87,4,6.87,10.12S295.35,50,290.43,50Z" transform="translate(0 -13)"/><path class="cls-2" d="M319.69,13.43V50h-5.05V13.43Z" transform="translate(0 -13)"/><path class="cls-2" d="M340,50V44.12h42.74c1.38,0,2.5-2.47,2.5-4.19s-1.12-5.3-2.5-5.3H344.9c-4.84,0-7.88-5-7.88-11.13s3-10.07,7.88-10.07H388V19.3H344.9c-1.38,0-2.5,2.47-2.5,4.2s1.12,5.25,2.5,5.25h37.88c4.92,0,7.87,5.07,7.87,11.18S387.7,50,382.78,50Z" transform="translate(0 -13)"/></g></svg>