<svg id="whatsapp_icon" xmlns="http://www.w3.org/2000/svg" viewBox="0 0 360 360"><defs><style>.cls-1{fill:#fff;}.cls-2{fill:#fdfdfd;}</style></defs><title>whatsapp_icon</title><rect width="360" height="360"/><path class="cls-1" d="M21,339.37c7.09-26.66,13.14-50.86,20.1-74.8,2.51-8.64,1.78-15.77-1.95-23.95C-.47,153.85,42.57,52.3,131.79,21.2c90-31.39,186.35,19.82,210.57,112,24,91.34-36,184.06-129.87,200-32.06,5.45-63.26,1.41-92.73-12.37-8.32-3.9-15.47-4.05-24-1.6C72.08,326,48.17,332.1,21,339.37Z"/><path d="M62.05,295.94c20-32.63,8.29-59.35-1.29-88.45C41.5,149,71.8,85.11,127.46,57A129.9,129.9,0,0,1,287.63,92.17c39,49.2,38.32,117.07-1.69,165.09-39.37,47.24-107,60.74-160.86,31.39-8.55-4.66-15.84-5.88-24.93-2.82C89.61,289.37,78.62,291.62,62.05,295.94Z"/><path class="cls-2" d="M226.09,246c-17.28-1.92-33.38-7.87-48.41-16.65-30.31-17.72-52.95-42.49-66.53-75-7-16.85-5.08-33.15,7.47-46.91,10.93-12,24.34-10.36,31.95,3.76,7.82,14.5,16.23,29.35.35,44.36-3.76,3.55-1.88,7.53.54,11.38,11.26,17.87,26.63,30.91,45.64,40,6.72,3.21,11.27,2.1,15-4.5,4.22-7.46,9.41-15.26,19.45-12.51,12.58,3.45,25.07,8.48,32,20.56,3.16,5.5.63,11.9-2.88,17.16C252.5,239.84,240.52,245,226.09,246Z"/></svg>