<svg xmlns="http://www.w3.org/2000/svg" viewBox="0 0 391.25 71.27"><defs><style>.cls-1{font-size:18px;stroke:#000;stroke-miterlimit:10;stroke-width:0.25px;font-family:CenturyGothic, Century Gothic;letter-spacing:0.87em;}.cls-2{fill:red;}</style></defs><title>Recurso 1</title><g id="Capa_2" data-name="Capa 2"><g id="_02-logo" data-name="02-logo"><text class="cls-1" transform="translate(0.13 65.63) scale(0.7 1)">DISEÑO Y CONSTRUCCIÓN</text><g id="TITULO"><path d="M.12,37V18.13h44.3c2.55,0,2.66-3.19,2.66-5.79S47,5.53,44.42,5.53H2.13V0H44.42c6.09,0,7,6.09,7,12.34s-.94,11.32-7,11.32H5.5V37Z"/><path d="M81.85,37c-6.46,0-12.72-5.13-12.72-11.74V11.15c0-6.61,6.26-11,12.72-11H108c6.46,0,12.71,4.39,12.71,11V25.26C120.75,31.87,114.5,37,108,37Zm0-31.31c-2.92,0-7.35,2.43-7.35,5.46V25.26c0,3,4.43,6.48,7.35,6.48H108c3,0,7.34-3.46,7.34-6.48V11.15c0-3-4.38-5.46-7.34-5.46Z"/><path d="M144.81.19V37h-5.37V.19Z"/><path class="cls-2" d="M162.49,5.81V.15h53.63V5.81Zm0,16.1V16.29h53.63v5.62Zm0,15.09V31.38h53.63V37Z"/><path d="M233.8,37V31.12h45.76c1.37,0,2.5-2.47,2.5-4.19s-1.13-5.3-2.5-5.3h-39.9c-4.83,0-6.87-3.91-6.87-10.07s2-11.13,6.87-11.13h44.13V6.3H239.66c-1.37,0-2.5,3.53-2.5,5.26s1.13,5.25,2.5,5.25h39.9c4.91,0,6.86,4,6.86,10.12S284.47,37,279.56,37Z"/><path d="M308.81.43V37h-5V.43Z"/><path d="M329.16,37V31.12h42.75c1.37,0,2.5-2.47,2.5-4.19s-1.13-5.3-2.5-5.3H334c-4.83,0-7.87-5-7.87-11.13S329.19.43,334,.43h43.09V6.3H334c-1.38,0-2.5,2.47-2.5,4.2s1.12,5.25,2.5,5.25h37.89c4.91,0,7.87,5.07,7.87,11.18S376.82,37,371.91,37Z"/></g></g></g></svg>